# xmcd
#
# Track frame offsets: 
#        150
#        17476
#        33435
#        44345
#        59688
#        74807
#        90181
#        103026
#        114342
#        124785
#        139826
#        160772
#
# Disc length: 2356 seconds
#
# Revision: 0
# Processed by: cddbd v1.5.1PL0 Copyright (c) Steve Scherf et al.
# Submitted via: ExactAudioCopy v0.95a5
#
DISCID=a009320c
DTITLE=Joy Division - Lost Control
DYEAR=2004
DGENRE=Classical
TTITLE0=She's Lost Control (Live In Altrincham 14.03.79)
TTITLE1=Shadowplay (Live In Altrincham 14.03.79)
TTITLE2=Leaders Of Men (Live In Altrincham 14.03.79)
TTITLE3=Insight (Live In Altrincham 14.03.79)
TTITLE4=Disorder (Live In Altrincham 14.03.79)
TTITLE5=Glass (Live In Altrincham 14.03.79)
TTITLE6=Digital (Live In Altrincham 14.03.79)
TTITLE7=Ice Age (Live In Altrincham 14.03.79)
TTITLE8=Warsaw (Live In Altrincham 14.03.79)
TTITLE9=Transmission (Live In Altrincham 14.03.79)
TTITLE10=I Remember Nothing (Live In Altrincham 14.03.79)
TTITLE11=No Love Lost (Live In Altrincham 14.03.79)
EXTD=
EXTT0=
EXTT1=
EXTT2=
EXTT3=
EXTT4=
EXTT5=
EXTT6=
EXTT7=
EXTT8=
EXTT9=
EXTT10=
EXTT11=
PLAYORDER=
